<svg width="35" height="35" viewBox="0 0 35 35" fill="none" xmlns="http://www.w3.org/2000/svg">
<rect y="0.75" width="35" height="34" rx="5" fill="#48BB78" fill-opacity="0.27"/>
<path d="M14.4979 21.6943L24.9112 11.1242C25.1569 10.8747 25.4436 10.75 25.7713 10.75C26.099 10.75 26.3856 10.8747 26.6314 11.1242C26.8771 11.3736 27 11.67 27 12.0134C27 12.3568 26.8771 12.6528 26.6314 12.9014L15.358 24.3758C15.1123 24.6253 14.8256 24.75 14.4979 24.75C14.1703 24.75 13.8836 24.6253 13.6379 24.3758L8.35443 19.0128C8.10869 18.7634 7.99074 18.4674 8.00057 18.1248C8.0104 17.7822 8.13859 17.4858 8.38515 17.2355C8.63171 16.9852 8.92373 16.8605 9.26122 16.8614C9.5987 16.8622 9.89031 16.9869 10.1361 17.2355L14.4979 21.6943Z" fill="#48BB78"/>
</svg>
