<svg width="32" height="33" viewBox="0 0 32 33" fill="none" xmlns="http://www.w3.org/2000/svg">
<path d="M26.6667 24.3161H24.0001V12.6494L16.0001 17.6494L8.00008 12.6494V24.3161H5.33341V8.31608H6.93341L16.0001 13.9827L25.0667 8.31608H26.6667M26.6667 5.64941H5.33341C3.85341 5.64941 2.66675 6.83608 2.66675 8.31608V24.3161C2.66675 25.0233 2.9477 25.7016 3.4478 26.2017C3.94789 26.7018 4.62617 26.9827 5.33341 26.9827H26.6667C27.374 26.9827 28.0523 26.7018 28.5524 26.2017C29.0525 25.7016 29.3334 25.0233 29.3334 24.3161V8.31608C29.3334 7.60884 29.0525 6.93056 28.5524 6.43046C28.0523 5.93037 27.374 5.64941 26.6667 5.64941Z" fill="black"/>
</svg>
