<svg width="41" height="42" viewBox="0 0 41 42" fill="none" xmlns="http://www.w3.org/2000/svg">
<path d="M15.3752 9.2915C16.2813 9.2915 17.1504 9.65147 17.7911 10.2922C18.4319 10.933 18.7918 11.802 18.7918 12.7082V22.9582C18.7918 28.3053 15.9731 31.8295 10.6653 33.1569C10.4471 33.2132 10.2199 33.2258 9.99676 33.194C9.77366 33.1621 9.55907 33.0864 9.36535 32.9712C9.17163 32.8561 9.00261 32.7037 8.86803 32.5229C8.73345 32.3422 8.63597 32.1366 8.5812 31.9179C8.52644 31.6993 8.51547 31.472 8.54893 31.2492C8.58239 31.0263 8.65962 30.8123 8.77616 30.6194C8.89271 30.4265 9.04627 30.2585 9.228 30.1253C9.40973 29.992 9.61604 29.896 9.83504 29.8428C13.6395 28.8912 15.3752 26.7216 15.3752 22.9582V21.2498H10.2502C9.38818 21.2501 8.55794 20.9246 7.92589 20.3384C7.29384 19.7523 6.90669 18.949 6.84204 18.0894L6.8335 17.8332V12.7082C6.8335 11.802 7.19347 10.933 7.83421 10.2922C8.47496 9.65147 9.34401 9.2915 10.2502 9.2915H15.3752ZM30.7502 9.2915C31.6563 9.2915 32.5254 9.65147 33.1661 10.2922C33.8069 10.933 34.1668 11.802 34.1668 12.7082V22.9582C34.1668 28.3053 31.3481 31.8295 26.0403 33.1569C25.8221 33.2132 25.5949 33.2258 25.3718 33.194C25.1487 33.1621 24.9341 33.0864 24.7403 32.9712C24.5466 32.8561 24.3776 32.7037 24.243 32.5229C24.1084 32.3422 24.011 32.1366 23.9562 31.9179C23.9014 31.6993 23.8905 31.472 23.9239 31.2492C23.9574 31.0263 24.0346 30.8123 24.1512 30.6194C24.2677 30.4265 24.4213 30.2585 24.603 30.1253C24.7847 29.992 24.991 29.896 25.21 29.8428C29.0145 28.8912 30.7502 26.7216 30.7502 22.9582V21.2498H25.6252C24.7632 21.2501 23.9329 20.9246 23.3009 20.3384C22.6688 19.7523 22.2817 18.949 22.217 18.0894L22.2085 17.8332V12.7082C22.2085 11.802 22.5685 10.933 23.2092 10.2922C23.85 9.65147 24.719 9.2915 25.6252 9.2915H30.7502Z" fill="#48BB78"/>
</svg>
