<svg width="32" height="33" viewBox="0 0 32 33" fill="none" xmlns="http://www.w3.org/2000/svg">
<path d="M17.3707 2.9834C18.8707 2.9874 19.632 2.9954 20.2893 3.01407L20.548 3.0234C20.8467 3.03407 21.1413 3.0474 21.4973 3.0634C22.916 3.13007 23.884 3.35407 24.7333 3.6834C25.6133 4.02207 26.3547 4.48073 27.096 5.22073C27.7742 5.88704 28.2989 6.69336 28.6333 7.5834C28.9627 8.43273 29.1867 9.40073 29.2533 10.8207C29.2693 11.1754 29.2827 11.4701 29.2933 11.7701L29.3013 12.0287C29.3213 12.6847 29.3293 13.4461 29.332 14.9461L29.3333 15.9407V17.6874C29.3366 18.6599 29.3263 19.6325 29.3027 20.6047L29.2947 20.8634C29.284 21.1634 29.2707 21.4581 29.2547 21.8127C29.188 23.2327 28.9613 24.1994 28.6333 25.0501C28.2989 25.9401 27.7742 26.7464 27.096 27.4127C26.4297 28.091 25.6234 28.6156 24.7333 28.9501C23.884 29.2794 22.916 29.5034 21.4973 29.5701L20.548 29.6101L20.2893 29.6181C19.632 29.6367 18.8707 29.6461 17.3707 29.6487L16.376 29.6501H14.6307C13.6577 29.6535 12.6847 29.6433 11.712 29.6194L11.4533 29.6114C11.1368 29.5994 10.8203 29.5856 10.504 29.5701C9.08532 29.5034 8.11732 29.2794 7.26665 28.9501C6.37709 28.6155 5.57124 28.0908 4.90532 27.4127C4.22658 26.7465 3.70146 25.9402 3.36665 25.0501C3.03732 24.2007 2.81332 23.2327 2.74665 21.8127L2.70665 20.8634L2.69999 20.6047C2.67541 19.6325 2.66429 18.6599 2.66665 17.6874V14.9461C2.66296 13.9735 2.67274 13.001 2.69599 12.0287L2.70532 11.7701C2.71599 11.4701 2.72932 11.1754 2.74532 10.8207C2.81199 9.40073 3.03599 8.43406 3.36532 7.5834C3.70091 6.693 4.22695 5.88665 4.90665 5.22073C5.57219 4.5428 6.37757 4.01816 7.26665 3.6834C8.11732 3.35407 9.08399 3.13007 10.504 3.0634C10.8587 3.0474 11.1547 3.03407 11.4533 3.0234L11.712 3.0154C12.6842 2.99171 13.6568 2.98149 14.6293 2.98473L17.3707 2.9834ZM16 9.65006C14.2319 9.65006 12.5362 10.3524 11.2859 11.6027C10.0357 12.8529 9.33332 14.5486 9.33332 16.3167C9.33332 18.0848 10.0357 19.7805 11.2859 21.0308C12.5362 22.281 14.2319 22.9834 16 22.9834C17.7681 22.9834 19.4638 22.281 20.714 21.0308C21.9643 19.7805 22.6667 18.0848 22.6667 16.3167C22.6667 14.5486 21.9643 12.8529 20.714 11.6027C19.4638 10.3524 17.7681 9.65006 16 9.65006ZM16 12.3167C16.5253 12.3166 17.0454 12.42 17.5308 12.621C18.0161 12.8219 18.4571 13.1165 18.8286 13.4878C19.2001 13.8592 19.4948 14.3001 19.6959 14.7854C19.897 15.2706 20.0006 15.7908 20.0007 16.3161C20.0007 16.8414 19.8974 17.3615 19.6964 17.8468C19.4955 18.3322 19.2009 18.7732 18.8296 19.1447C18.4582 19.5162 18.0173 19.8109 17.532 20.012C17.0467 20.2131 16.5266 20.3166 16.0013 20.3167C14.9405 20.3167 13.923 19.8953 13.1729 19.1452C12.4227 18.395 12.0013 17.3776 12.0013 16.3167C12.0013 15.2559 12.4227 14.2384 13.1729 13.4883C13.923 12.7382 14.9405 12.3167 16.0013 12.3167M23.0013 7.65006C22.5593 7.65006 22.1354 7.82566 21.8228 8.13822C21.5102 8.45078 21.3347 8.8747 21.3347 9.31673C21.3347 9.75876 21.5102 10.1827 21.8228 10.4952C22.1354 10.8078 22.5593 10.9834 23.0013 10.9834C23.4433 10.9834 23.8673 10.8078 24.1798 10.4952C24.4924 10.1827 24.668 9.75876 24.668 9.31673C24.668 8.8747 24.4924 8.45078 24.1798 8.13822C23.8673 7.82566 23.4433 7.65006 23.0013 7.65006Z" fill="black"/>
</svg>
