<svg width="690" height="631" viewBox="0 0 690 631" fill="none" xmlns="http://www.w3.org/2000/svg">
<path d="M653 285.5C673.987 285.5 691.216 302.564 688.912 323.424C683.68 370.804 668.682 416.732 644.712 458.25C614.388 510.773 570.773 554.388 518.25 584.712C465.727 615.036 406.148 631 345.5 631C284.852 631 225.273 615.036 172.75 584.712C120.227 554.388 76.6122 510.773 46.2882 458.25C15.9643 405.727 -5.30201e-06 346.148 0 285.5C5.30201e-06 224.852 15.9643 165.273 46.2882 112.75C70.2589 71.2316 102.535 35.2793 140.95 7.05821C157.864 -5.3668 181.257 1.02205 191.75 19.1972L334.53 266.5C341.318 278.257 353.863 285.5 367.439 285.5H653Z" fill="#FF6B6B"/>
</svg>
