<svg width="68" height="68" viewBox="0 0 68 68" fill="none" xmlns="http://www.w3.org/2000/svg">
<path d="M56.6666 17.0003C56.6666 10.8577 46.2881 5.66699 33.9999 5.66699C21.7118 5.66699 11.3333 10.8577 11.3333 17.0003V22.667C11.3333 28.8097 21.7118 34.0003 33.9999 34.0003C46.2881 34.0003 56.6666 28.8097 56.6666 22.667V17.0003ZM33.9999 53.8337C21.7118 53.8337 11.3333 48.643 11.3333 42.5003V51.0003C11.3333 57.143 21.7118 62.3337 33.9999 62.3337C46.2881 62.3337 56.6666 57.143 56.6666 51.0003V42.5003C56.6666 48.643 46.2881 53.8337 33.9999 53.8337Z" fill="#F5F7FA"/>
<path d="M56.6666 28.333C56.6666 34.4757 46.2881 39.6663 33.9999 39.6663C21.7118 39.6663 11.3333 34.4757 11.3333 28.333V36.833C11.3333 42.9757 21.7118 48.1663 33.9999 48.1663C46.2881 48.1663 56.6666 42.9757 56.6666 36.833V28.333Z" fill="#F5F7FA"/>
</svg>
