<svg width="68" height="68" viewBox="0 0 68 68" fill="none" xmlns="http://www.w3.org/2000/svg">
<path d="M11.3333 31.1667C10.5306 31.1667 9.85811 30.8947 9.316 30.3507C8.77389 29.8067 8.50189 29.1342 8.5 28.3333V11.3333C8.5 10.5306 8.772 9.85811 9.316 9.316C9.86 8.77389 10.5324 8.50189 11.3333 8.5H28.3333C29.1361 8.5 29.8095 8.772 30.3535 9.316C30.8975 9.86 31.1686 10.5324 31.1667 11.3333V28.3333C31.1667 29.1361 30.8947 29.8095 30.3507 30.3535C29.8067 30.8975 29.1342 31.1686 28.3333 31.1667H11.3333ZM39.6667 31.1667C38.8639 31.1667 38.1914 30.8947 37.6493 30.3507C37.1072 29.8067 36.8352 29.1342 36.8333 28.3333V11.3333C36.8333 10.5306 37.1053 9.85811 37.6493 9.316C38.1933 8.77389 38.8658 8.50189 39.6667 8.5H56.6667C57.4694 8.5 58.1428 8.772 58.6868 9.316C59.2308 9.86 59.5019 10.5324 59.5 11.3333V28.3333C59.5 29.1361 59.228 29.8095 58.684 30.3535C58.14 30.8975 57.4676 31.1686 56.6667 31.1667H39.6667ZM11.3333 59.5C10.5306 59.5 9.85811 59.228 9.316 58.684C8.77389 58.14 8.50189 57.4676 8.5 56.6667V39.6667C8.5 38.8639 8.772 38.1914 9.316 37.6493C9.86 37.1072 10.5324 36.8352 11.3333 36.8333H28.3333C29.1361 36.8333 29.8095 37.1053 30.3535 37.6493C30.8975 38.1933 31.1686 38.8658 31.1667 39.6667V56.6667C31.1667 57.4694 30.8947 58.1428 30.3507 58.6868C29.8067 59.2308 29.1342 59.5019 28.3333 59.5H11.3333ZM48.1667 59.5C47.3639 59.5 46.6914 59.228 46.1493 58.684C45.6072 58.14 45.3352 57.4676 45.3333 56.6667V51H39.5958C38.7931 51 38.1319 50.728 37.6125 50.184C37.0931 49.64 36.8333 48.9676 36.8333 48.1667C36.8333 47.3658 37.1053 46.6933 37.6493 46.1493C38.1933 45.6053 38.8658 45.3333 39.6667 45.3333H45.3333V39.5958C45.3333 38.7931 45.6053 38.1319 46.1493 37.6125C46.6933 37.0931 47.3658 36.8333 48.1667 36.8333C48.9676 36.8333 49.6409 37.1053 50.1868 37.6493C50.7327 38.1933 51.0038 38.8658 51 39.6667V45.3333H56.7375C57.5403 45.3333 58.2014 45.6053 58.7208 46.1493C59.2403 46.6933 59.5 47.3658 59.5 48.1667C59.5 48.9676 59.228 49.6409 58.684 50.1868C58.14 50.7327 57.4676 51.0038 56.6667 51H51V56.7375C51 57.5403 50.728 58.2014 50.184 58.7208C49.64 59.2403 48.9676 59.5 48.1667 59.5Z" fill="#F5F7FA"/>
</svg>
