<svg width="68" height="68" viewBox="0 0 68 68" fill="none" xmlns="http://www.w3.org/2000/svg">
<path d="M22.6667 59.5C21.1084 59.5 19.7749 58.9456 18.6661 57.8368C17.5573 56.7281 17.002 55.3936 17.0001 53.8333V48.1667H11.3334C9.77508 48.1667 8.44153 47.6123 7.33275 46.5035C6.22397 45.3947 5.66864 44.0602 5.66675 42.5V31.1667C5.66675 28.7583 6.49314 26.7401 8.14591 25.1118C9.79869 23.4836 11.8056 22.6686 14.1667 22.6667H53.8334C56.2417 22.6667 58.261 23.4817 59.8911 25.1118C61.5212 26.7419 62.3353 28.7602 62.3334 31.1667V42.5C62.3334 44.0583 61.779 45.3928 60.6702 46.5035C59.5615 47.6142 58.227 48.1686 56.6667 48.1667H51.0001V53.8333C51.0001 55.3917 50.4457 56.7262 49.3369 57.8368C48.2281 58.9475 46.8936 59.5019 45.3334 59.5H22.6667ZM51.0001 19.8333H17.0001V14.1667C17.0001 12.6083 17.5554 11.2748 18.6661 10.166C19.7767 9.05722 21.1103 8.50189 22.6667 8.5H45.3334C46.8917 8.5 48.2262 9.05533 49.3369 10.166C50.4476 11.2767 51.002 12.6102 51.0001 14.1667V19.8333ZM51.0001 35.4167C51.8029 35.4167 52.4762 35.1447 53.0202 34.6007C53.5642 34.0567 53.8353 33.3842 53.8334 32.5833C53.8315 31.7824 53.5595 31.11 53.0174 30.566C52.4753 30.022 51.8029 29.75 51.0001 29.75C50.1973 29.75 49.5249 30.022 48.9827 30.566C48.4406 31.11 48.1686 31.7824 48.1667 32.5833C48.1649 33.3842 48.4369 34.0576 48.9827 34.6035C49.5286 35.1494 50.2011 35.4204 51.0001 35.4167ZM22.6667 53.8333H45.3334V42.5H22.6667V53.8333Z" fill="#F5F7FA"/>
</svg>
