<svg width="68" height="68" viewBox="0 0 68 68" fill="none" xmlns="http://www.w3.org/2000/svg">
<path d="M24.0833 38.25L31.1667 46.75L41.0833 34L53.8333 51H14.1667M59.5 53.8333V14.1667C59.5 12.6638 58.903 11.2224 57.8403 10.1597C56.7776 9.09702 55.3362 8.5 53.8333 8.5H14.1667C12.6638 8.5 11.2224 9.09702 10.1597 10.1597C9.09702 11.2224 8.5 12.6638 8.5 14.1667V53.8333C8.5 55.3362 9.09702 56.7776 10.1597 57.8403C11.2224 58.903 12.6638 59.5 14.1667 59.5H53.8333C55.3362 59.5 56.7776 58.903 57.8403 57.8403C58.903 56.7776 59.5 55.3362 59.5 53.8333Z" fill="#F5F7FA"/>
</svg>
